<svg id="Componente_49_1" data-name="Componente 49 – 1" xmlns="http://www.w3.org/2000/svg" width="158.437" height="49.217" viewBox="0 0 158.437 49.217">
  <path id="Caminho_8" data-name="Caminho 8" d="M50.64,42.159,45.89,63.735c-.861,5.59,2.1,7.624,7.221,7.646H76.905c4.864-.037,8-2.112,8.809-6.864l2.643-13.925H68.264l-1.954,8.126h2.835c-.177.83-.357,1.667-.534,2.5a2.7,2.7,0,0,1-2.7,2.049,1.555,1.555,0,0,1-1.624-2.08L67.6,45.1c1.07-2.7,4.524-2.238,4.184,0l-.325,1.381H89.241c2.039-5.736,2.347-10.571-5.743-11.069-3.037,0-9.263-.024-15.035-.075-4.781-.041-9.255-.19-11.328.417a8.78,8.78,0,0,0-6.5,6.407Zm0,0" transform="translate(-45.742 -35.288)" fill="#fff" fill-rule="evenodd"/>
  <path id="Caminho_9" data-name="Caminho 9" d="M454.6,105.348l1.318,21.139H464.6l4.444-9.765v9.663h9.083l10.132-20.991h-9.433L475,114.227v-8.879h-7.143l-3.83,8.925v-8.925H454.6Zm0,0" transform="translate(-368.308 -90.562)" fill="#fff" fill-rule="evenodd"/>
  <path id="Caminho_10" data-name="Caminho 10" d="M612.892,78.344l-1.369,5.7h-2.456l-.838,3.845h2.641l-3.7,16.872h9.741l3.527-16.631H623.2l.978-4.015h-2.823l1.1-5.7Zm0,0" transform="translate(-488.674 -69.257)" fill="#fff" fill-rule="evenodd"/>
  <path id="Caminho_11" data-name="Caminho 11" d="M681.685,78.538l-5.594,26.484h9.648l3.124-14.512c.434-2.665,3.262-1.736,2.558.349l-2.869,14.268h9.656q1.631-7.65,3.265-15.3c.316-5.726-3.774-7-11.68-4.415l1.651-6.867Zm0,0" transform="translate(-543.052 -69.41)" fill="#fff" fill-rule="evenodd"/>
  <path id="Caminho_12" data-name="Caminho 12" d="M247.284,103.885,243,124.536h9.787q1.23-5.986,2.464-11.972a5.064,5.064,0,0,1,5.692-3.335c.376-2.019.757-4.061,1.138-6.078-2.352.051-4.42.386-5.42,1.764l.131-1.179Zm0,0" transform="translate(-201.368 -88.829)" fill="#fff" fill-rule="evenodd"/>
  <path id="Caminho_13" data-name="Caminho 13" d="M223.46,231.891h-8.587l-.326,1.711h5.547c1.335,0,2.158.119,2.629.667.619.707.424,2.884-.806,3.8a7.45,7.45,0,0,1-2.743.4h-7.627l.328-1.5h9.066l.349-1.823h-6.636a2.418,2.418,0,0,1-1.68-.393c-.257-.264-.313-.762-.172-1.488l.163-.879a2.373,2.373,0,0,1,.738-1.488,3.13,3.13,0,0,1,1.828-.4h8.124Zm-132.878,0H82l-.325,1.711h5.546c1.343,0,2.156.119,2.637.667.621.707.419,2.884-.813,3.8a7.415,7.415,0,0,1-2.743.4H78.669l.327-1.5h9.066l.349-1.823H81.769a2.418,2.418,0,0,1-1.673-.393c-.252-.264-.308-.762-.172-1.488l.165-.879a2.372,2.372,0,0,1,.735-1.488,3.125,3.125,0,0,1,1.83-.4h8.129Zm5.326-1.388-1.218,6.466H101.8l1.223-6.466h2.063l-1.155,6.078a2.344,2.344,0,0,1-.728,1.5,6.6,6.6,0,0,1-2.556.393H94.536a2.485,2.485,0,0,1-1.675-.393,1.736,1.736,0,0,1-.18-1.5l1.156-6.078Zm19.437,1.374h-5.474l-.4,2.114h5.478a1.513,1.513,0,0,0,.76-.139.71.71,0,0,0,.3-.5l.155-.854a.49.49,0,0,0-.1-.488,1.238,1.238,0,0,0-.711-.138Zm-8.76,6.595,1.51-7.969h8.425a2.239,2.239,0,0,1,1.473.366,1.207,1.207,0,0,1,.25,1.168l-.345,1.787a1.734,1.734,0,0,1-.687,1.175,2.953,2.953,0,0,1-1.612.367h-6.386l-.583,3.107Zm21.569-6.595H122.6l-.4,2.114h5.561a1.528,1.528,0,0,0,.762-.139.683.683,0,0,0,.294-.5l.163-.854c.039-.23.009-.4-.109-.488a1.227,1.227,0,0,0-.711-.138Zm-8.842,6.595,1.51-7.969h8.51a2.2,2.2,0,0,1,1.471.366,1.187,1.187,0,0,1,.252,1.168l-.332,1.787a1.72,1.72,0,0,1-.709,1.175,2.874,2.874,0,0,1-1.6.367h-6.479l-.59,3.107Zm12.615-.032,1.5-7.966H135.5l-1.216,6.471,7,.024-.606,1.471Zm11.775.056,1.512-7.976,9.268-.017-.35,1.349-7.1.025-.34,1.782,6.658-.022-.25,1.356-6.666.022-.369,1.976,7.058-.022-.667,1.527Zm11.74-.024,1.508-7.969h1.677l3.843,5.83,6.6-5.83h1.951l-1.6,7.969h-1.634c.2-1.491.61-3.881.838-5.287.061-.449-.041-.294-.35.014-.116.127-.2.253-.286.328l-4.976,4.968h-1.294l-3.185-4.986a2.444,2.444,0,0,1-.24-.424,2.807,2.807,0,0,1-.144-.388c-.012.17-.028.328-.046.451-.012.139-.039.27-.058.4l-.932,4.923h-1.68Zm17.015,0,1.512-7.969h9.415l-.252,1.349h-7.347l-.342,1.785h6.687l-.262,1.356h-6.682l-.369,1.976h7.051l-.282,1.5Zm11.719,0,1.512-7.969h1.408l8.162,5.3c.015-.109,1.068-4.046,1.3-5.3h1.68l-1.835,7.969h-1.041l-8.338-5.8c-.184.595-.237,1.109-.332,1.488l-1.007,4.309Zm22.476-6.549-1.235,6.549h-1.959l1.23-6.549H200.2l.264-1.42h10.826l-.282,1.42Zm0,0" transform="translate(-71.72 -189.279)" fill="#fff" fill-rule="evenodd"/>
  <path id="Caminho_14" data-name="Caminho 14" d="M341.376,105.55h-8.527c-2.532.424-4.036,1.752-4.461,4.007-.978,4.294-1.9,8.595-2.93,12.879-1.163,4.859,6.369,4.082,11.624,4.082h5.488a6.825,6.825,0,0,0,4.542-2.4c.859-1.087,2.51-8.966,3.7-14.634.99-4.663-5.022-3.935-9.44-3.935ZM338.524,121.2a1.727,1.727,0,0,1-1.6,1.364h-.095a1.08,1.08,0,0,1-1.08-1.364l1.954-10.02a1.725,1.725,0,0,1,1.6-1.362h.1a1.084,1.084,0,0,1,1.077,1.362Zm0,0" transform="translate(-266.328 -90.688)" fill="#fff" fill-rule="evenodd"/>
</svg>
